<svg id="visual" viewBox="0 0 960 540" width="960" height="540" xmlns="http://www.w3.org/2000/svg" xmlns:xlink="http://www.w3.org/1999/xlink" version="1.1"><path d="M0 163L32 169.5C64 176 128 189 192 187.2C256 185.3 320 168.7 384 165.5C448 162.3 512 172.7 576 195.3C640 218 704 253 768 258.3C832 263.7 896 239.3 928 227.2L960 215L960 541L928 541C896 541 832 541 768 541C704 541 640 541 576 541C512 541 448 541 384 541C320 541 256 541 192 541C128 541 64 541 32 541L0 541Z" fill="white" stroke-linecap="round" stroke-linejoin="miter"></path></svg>