<svg id="visual" viewBox="0 0 900 600" width="900" height="600" xmlns="http://www.w3.org/2000/svg" xmlns:xlink="http://www.w3.org/1999/xlink" version="1.1"><path d="M0 181L30 188.2C60 195.3 120 209.7 180 207.7C240 205.7 300 187.3 360 184C420 180.7 480 192.3 540 217.5C600 242.7 660 281.3 720 287.2C780 293 840 266 870 252.5L900 239L900 601L870 601C840 601 780 601 720 601C660 601 600 601 540 601C480 601 420 601 360 601C300 601 240 601 180 601C120 601 60 601 30 601L0 601Z" fill="white" stroke-linecap="round" stroke-linejoin="miter"></path></svg>