<svg id="visual" viewBox="0 0 1900 250" width="1900" height="250" xmlns="http://www.w3.org/2000/svg" xmlns:xlink="http://www.w3.org/1999/xlink" version="1.1"><path d="M0 143L63.3 135.8C126.7 128.7 253.3 114.3 380 120.7C506.7 127 633.3 154 760 149.3C886.7 144.7 1013.3 108.3 1140 95.5C1266.7 82.7 1393.3 93.3 1520 109.5C1646.7 125.7 1773.3 147.3 1836.7 158.2L1900 169L1900 251L1836.7 251C1773.3 251 1646.7 251 1520 251C1393.3 251 1266.7 251 1140 251C1013.3 251 886.7 251 760 251C633.3 251 506.7 251 380 251C253.3 251 126.7 251 63.3 251L0 251Z" fill="#FFFFFF" stroke-linecap="round" stroke-linejoin="miter"></path></svg>