<svg id="visual" viewBox="0 0 900 900" width="900" height="900" xmlns="http://www.w3.org/2000/svg" xmlns:xlink="http://www.w3.org/1999/xlink" version="1.1"><path d="M0 273L30 283.7C60 294.3 120 315.7 180 312.3C240 309 300 281 360 275.8C420 270.7 480 288.3 540 326.3C600 364.3 660 422.7 720 431.7C780 440.7 840 400.3 870 380.2L900 360L900 901L870 901C840 901 780 901 720 901C660 901 600 901 540 901C480 901 420 901 360 901C300 901 240 901 180 901C120 901 60 901 30 901L0 901Z" fill="white" stroke-linecap="round" stroke-linejoin="miter"></path></svg>