<svg id="visual" viewBox="0 0 900 675" width="900" height="675" xmlns="http://www.w3.org/2000/svg" xmlns:xlink="http://www.w3.org/1999/xlink" version="1.1"><path d="M0 204L30 212C60 220 120 236 180 233.7C240 231.3 300 210.7 360 206.8C420 203 480 216 540 244.5C600 273 660 317 720 323.7C780 330.3 840 299.7 870 284.3L900 269L900 676L870 676C840 676 780 676 720 676C660 676 600 676 540 676C480 676 420 676 360 676C300 676 240 676 180 676C120 676 60 676 30 676L0 676Z" fill="white" stroke-linecap="round" stroke-linejoin="miter"></path></svg>