<svg id="visual" viewBox="0 0 600 900" width="600" height="900" xmlns="http://www.w3.org/2000/svg" xmlns:xlink="http://www.w3.org/1999/xlink" version="1.1"><path d="M0 273L20 283.7C40 294.3 80 315.7 120 312.3C160 309 200 281 240 275.8C280 270.7 320 288.3 360 326.3C400 364.3 440 422.7 480 431.7C520 440.7 560 400.3 580 380.2L600 360L600 901L580 901C560 901 520 901 480 901C440 901 400 901 360 901C320 901 280 901 240 901C200 901 160 901 120 901C80 901 40 901 20 901L0 901Z" fill="#0066FF" stroke-linecap="round" stroke-linejoin="miter"></path></svg>